<svg xmlns="http://www.w3.org/2000/svg" viewBox="0 0 64 64">
  <rect width="64" height="64" rx="14" fill="#f8f4eb"/>
  <g transform="translate(8 1)" fill="none" stroke="#c43e24" stroke-width="2.7" stroke-linecap="square" stroke-linejoin="miter">
    <path d="M24 3l6 6-6 6-6-6z"/>
    <path d="M12 9l6 6-6 6-6-6zM36 9l6 6-6 6-6-6z"/>
    <path d="M18 15l6 6 6-6"/>
    <path d="M24 21v22"/>
    <path d="M12 21l12 12 12-12M6 27l6 6-6 6M42 27l-6 6 6 6"/>
    <path d="M12 33l12 12 12-12"/>
    <path d="M18 45l6 6 6-6"/>
    <path d="M12 43l6 6-6 6-6-6zM36 43l6 6-6 6-6-6z"/>
    <path d="M24 49l6 6-6 6-6-6z"/>
  </g>
</svg>